<svg width="29" height="31" viewBox="0 0 29 31" fill="none" xmlns="http://www.w3.org/2000/svg">
<path d="M12.0495 14.2274C13.5285 16.6874 13.311 19.5824 11.542 20.7524C9.773 21.8924 7.134 20.8274 5.6405 18.3674C4.1615 15.9074 4.3935 12.9824 6.1625 11.8424C7.9315 10.7024 10.5705 11.7674 12.0495 14.2274ZM14.5 24.4574C17.4 24.4574 18.125 23.3324 18.125 23.3324C18.125 23.3324 17.4 26.3324 14.5 26.3324C11.6 26.3324 10.875 23.3774 10.875 23.3324C10.875 23.3324 11.6 24.4574 14.5 24.4574ZM22.8375 11.8424C24.6065 12.9824 24.8385 15.9074 23.3595 18.3674C21.866 20.8274 19.227 21.8924 17.458 20.7524C15.689 19.5824 15.4715 16.6874 16.9505 14.2274C18.4295 11.7674 21.0685 10.7024 22.8375 11.8424ZM14.5 27.8324C18.125 27.8324 26.1 20.1224 26.1 14.3324C26.1 8.5424 20.8945 3.8324 14.5 3.8324C8.1055 3.8324 2.9 8.5424 2.9 14.3324C2.9 20.1224 10.875 27.8324 14.5 27.8324ZM14.5 0.832397C22.475 0.832397 29 6.8924 29 14.3324C29 20.4524 20.764 30.8324 14.5 30.8324C8.236 30.8324 0 20.4524 0 14.3324C0 6.8924 6.525 0.832397 14.5 0.832397Z" fill="#02E4C0"/>
</svg>
