<svg width="26" height="24" viewBox="0 0 26 24" fill="none" xmlns="http://www.w3.org/2000/svg">
<path d="M7.14636 13.7764L10.9197 10.003L2.66636 1.76302C2.02636 1.12302 0.919691 1.29636 0.519691 2.12302C-0.426976 4.10969 -0.0803094 6.54969 1.55969 8.20302L7.14636 13.7764ZM16.1864 11.363C18.2264 12.3097 21.093 11.643 23.213 9.52302C25.7597 6.97635 26.253 3.32302 24.293 1.36302C22.3464 -0.583644 18.693 -0.103644 16.133 2.44302C14.013 4.56302 13.3464 7.42969 14.293 9.46969L2.21302 21.5497C1.96372 21.799 1.82366 22.1371 1.82366 22.4897C1.82366 22.8423 1.96372 23.1804 2.21302 23.4297C2.46233 23.679 2.80046 23.819 3.15302 23.819C3.50559 23.819 3.84372 23.679 4.09302 23.4297L12.3464 15.203L20.5864 23.443C20.7098 23.5665 20.8563 23.6644 21.0176 23.7312C21.1789 23.798 21.3518 23.8324 21.5264 23.8324C21.7009 23.8324 21.8738 23.798 22.0351 23.7312C22.1964 23.6644 22.3429 23.5665 22.4664 23.443C22.5898 23.3196 22.6877 23.173 22.7545 23.0117C22.8213 22.8505 22.8557 22.6776 22.8557 22.503C22.8557 22.3284 22.8213 22.1556 22.7545 21.9943C22.6877 21.833 22.5898 21.6865 22.4664 21.563L14.2264 13.323L16.1864 11.363Z" fill="#02E4C0"/>
</svg>
