<svg width="41" height="20" viewBox="0 0 41 20" fill="none" xmlns="http://www.w3.org/2000/svg">
<path d="M31.775 0.83256C29.315 0.83256 26.9917 1.8214 25.3346 3.53423L13.325 14.5528C12.2317 15.6829 10.7796 16.3009 9.225 16.3009C6.03042 16.3009 3.41667 13.6346 3.41667 10.3325C3.41667 7.0305 6.03042 4.36415 9.225 4.36415C10.7796 4.36415 12.2317 4.98218 13.3933 6.18292L15.3238 7.94872L17.9375 5.58255L15.7508 3.62252C14.8953 2.7349 13.8782 2.03133 12.7581 1.55246C11.6379 1.07358 10.4371 0.828905 9.225 0.83256C4.13417 0.83256 0 5.10579 0 10.3325C0 15.5593 4.13417 19.8325 9.225 19.8325C11.685 19.8325 14.0083 18.8437 15.6654 17.1309L27.675 6.11229C28.7683 4.98218 30.2204 4.36415 31.775 4.36415C34.9696 4.36415 37.5833 7.0305 37.5833 10.3325C37.5833 13.6346 34.9696 16.3009 31.775 16.3009C30.2375 16.3009 28.7683 15.6829 27.6067 14.4822L25.625 12.6987L23.0625 15.0649L25.2492 17.0426C26.107 17.9257 27.125 18.6252 28.2448 19.1009C29.3646 19.5767 30.5643 19.8193 31.775 19.8149C36.8658 19.8149 41 15.5593 41 10.3325C41 5.03515 36.8658 0.83256 31.775 0.83256Z" fill="#02E4C0"/>
</svg>
